# This file uses centimeters as units for non-parametric coordinates.

mtllib grass.mtl
g default
v -0.090777 -0.000810 -0.000000
v 0.127366 -0.000810 -0.000000
v -0.090777 0.228211 -0.047498
v 0.127366 0.228211 -0.047498
v -0.084106 0.028389 -0.077771
v 0.086310 -0.015206 0.051241
v -0.014283 0.193431 -0.077771
v 0.156133 0.149836 0.051241
v -0.067932 -0.012231 0.064276
v 0.103775 0.009475 -0.068508
v -0.149440 0.183544 0.045240
v 0.022267 0.205250 -0.087544
v 0.006973 0.000628 0.100320
v 0.042166 0.002409 -0.114958
v -0.038640 0.224991 0.094719
v -0.003447 0.226772 -0.120558
v -0.016850 0.151128 0.067677
v -0.045132 0.005756 0.012013
v 0.101514 -0.011169 -0.018292
v 0.129795 0.134202 0.037372
v 0.004026 0.154762 -0.094263
v 0.055319 0.009391 -0.058664
v -0.059424 -0.007535 0.037551
v -0.110717 0.137837 0.001952
v 0.127366 0.075530 -0.015833
v 0.127366 0.151870 -0.031666
v -0.090777 0.151870 -0.031666
v -0.090777 0.075530 -0.015833
v 0.109584 0.039808 0.051241
v 0.132858 0.094822 0.051241
v -0.037558 0.138417 -0.077771
v -0.060832 0.083403 -0.077771
v 0.049437 0.139992 -0.081199
v -0.122270 0.118286 0.051586
v 0.026962 0.077197 -0.116825
v 0.011758 0.151985 -0.118692
v -0.023435 0.150204 0.096586
v -0.008231 0.075416 0.098453
v 0.110941 0.037288 0.000263
v 0.120368 0.085745 0.018817
v -0.026277 0.102670 0.049122
v -0.035705 0.054213 0.030568
v 0.021124 0.106305 -0.082397
v -0.093620 0.089380 0.013818
v 0.076606 0.074733 -0.074854
v -0.095101 0.053028 0.057931
v -0.076522 0.040923 0.025684
v 0.038221 0.057848 -0.070531
vt 0.000000 -0.000000
vt 1.000000 0.000000
vt -0.000000 1.000000
vt 1.000000 1.000000
vt 0.000000 -0.000000
vt 1.000000 0.000000
vt -0.000000 1.000000
vt 1.000000 1.000000
vt 0.000000 -0.000000
vt 1.000000 0.000000
vt -0.000000 1.000000
vt 1.000000 1.000000
vt 0.000000 -0.000000
vt 1.000000 0.000000
vt -0.000000 1.000000
vt 1.000000 1.000000
vt -0.000000 1.000000
vt 0.000000 -0.000000
vt 1.000000 0.000000
vt 1.000000 1.000000
vt -0.000000 1.000000
vt 0.000000 -0.000000
vt 1.000000 0.000000
vt 1.000000 1.000000
vt 1.000000 0.335788
vt 1.000000 0.666168
vt -0.000000 0.666168
vt 0.000000 0.335787
vt 1.000000 0.335788
vt 1.000000 0.666168
vt -0.000000 0.666168
vt 0.000000 0.335787
vt 1.000000 0.666168
vt -0.000000 0.666168
vt 1.000000 0.335788
vt 1.000000 0.666168
vt -0.000000 0.666168
vt 0.000000 0.335787
vt 1.000000 0.335788
vt 1.000000 0.666168
vt -0.000000 0.666168
vt 0.000000 0.335787
vt -0.000000 0.666168
vt 1.000000 0.666168
vt 1.000000 0.335788
vt 0.000000 0.335787
vt 1.000000 0.335788
vt 0.000000 0.335787
vn 0.000000 0.203076 0.979163
vn 0.000000 0.203076 0.979163
vn 0.000000 0.203076 0.979163
vn 0.000000 0.203076 0.979163
vn -0.548660 0.232116 0.803177
vn -0.548660 0.232116 0.803177
vn -0.548660 0.232116 0.803177
vn -0.548660 0.232116 0.803177
vn 0.557576 0.307127 0.771221
vn 0.557576 0.307127 0.771221
vn 0.557576 0.307127 0.771221
vn 0.557576 0.307127 0.771221
vn 0.966595 0.200496 0.159674
vn 0.966595 0.200496 0.159674
vn 0.966595 0.200496 0.159674
vn 0.966595 0.200496 0.159674
vn 0.145261 -0.378317 0.914208
vn 0.145261 -0.378317 0.914208
vn 0.145261 -0.378317 0.914208
vn 0.145261 -0.378317 0.914208
vn 0.561373 0.378317 0.736027
vn 0.561373 0.378317 0.736027
vn 0.561373 0.378317 0.736028
vn 0.561373 0.378317 0.736027
vn 0.000000 0.203076 0.979163
vn 0.000000 0.203076 0.979163
vn 0.000000 0.203076 0.979163
vn 0.000000 0.203076 0.979163
vn 0.000000 0.203076 0.979163
vn 0.000000 0.203076 0.979163
vn 0.000000 0.203076 0.979163
vn 0.000000 0.203076 0.979163
vn -0.548660 0.232116 0.803178
vn -0.548660 0.232116 0.803178
vn -0.548660 0.232116 0.803178
vn -0.548660 0.232116 0.803178
vn -0.548660 0.232116 0.803178
vn -0.548660 0.232116 0.803178
vn -0.548660 0.232116 0.803178
vn -0.548660 0.232116 0.803178
vn 0.557576 0.307127 0.771221
vn 0.557576 0.307127 0.771221
vn 0.557576 0.307127 0.771221
vn 0.557576 0.307127 0.771221
vn 0.966595 0.200496 0.159674
vn 0.966595 0.200496 0.159674
vn 0.966595 0.200496 0.159674
vn 0.966595 0.200496 0.159674
vn 0.966595 0.200496 0.159674
vn 0.966595 0.200496 0.159674
vn 0.966595 0.200496 0.159674
vn 0.966595 0.200496 0.159674
vn 0.145261 -0.378317 0.914208
vn 0.145261 -0.378317 0.914208
vn 0.145261 -0.378317 0.914208
vn 0.145261 -0.378317 0.914208
vn 0.145261 -0.378317 0.914208
vn 0.145261 -0.378317 0.914208
vn 0.145261 -0.378317 0.914208
vn 0.145261 -0.378317 0.914208
vn 0.561373 0.378317 0.736027
vn 0.561373 0.378317 0.736027
vn 0.561373 0.378317 0.736027
vn 0.561373 0.378317 0.736027
vn 0.557576 0.307127 0.771221
vn 0.557576 0.307127 0.771221
vn 0.557576 0.307127 0.771221
vn 0.557576 0.307127 0.771221
vn 0.561373 0.378317 0.736027
vn 0.561373 0.378317 0.736028
vn 0.561373 0.378317 0.736027
vn 0.561373 0.378317 0.736027
s off
g Grass_Mesh_Asset
usemtl blinn1SG
f 25/25/1 26/26/2 27/27/3 28/28/4
f 29/29/5 30/30/6 31/31/7 32/32/8
f 33/33/9 34/34/10 46/46/11 45/45/12
f 35/35/13 36/36/14 37/37/15 38/38/16
f 39/39/17 40/40/18 41/41/19 42/42/20
f 44/44/21 47/47/22 48/48/23 43/43/24
f 4/4/25 3/3/26 27/27/27 26/26/28
f 28/28/29 1/1/30 2/2/31 25/25/32
f 8/8/33 7/7/34 31/31/35 30/30/36
f 32/32/37 5/5/38 6/6/39 29/29/40
f 12/12/41 11/11/42 34/34/43 33/33/44
f 16/16/45 15/15/46 37/37/47 36/36/48
f 38/38/49 13/13/50 14/14/51 35/35/52
f 20/20/53 17/17/54 41/41/55 40/40/56
f 42/42/57 18/18/58 19/19/59 39/39/60
f 24/24/61 44/44/62 43/43/63 21/21/64
f 9/9/65 10/10/66 45/45/67 46/46/68
f 23/23/69 22/22/70 48/48/71 47/47/72
