# This file uses centimeters as units for non-parametric coordinates.

mtllib rock.mtl
g default
v -0.231003 0.155373 0.367698
v -0.486762 0.826907 0.265280
v -0.377096 0.133675 -0.391234
v -0.244584 0.882676 -0.430798
v 0.294284 0.133316 0.355433
v 0.434007 0.901532 0.453127
v 0.421591 0.098199 -0.392221
v 0.392122 0.930301 -0.406569
v 0.148358 0.107182 -0.433081
v -0.153917 0.137797 -0.447354
v -0.012618 0.930688 -0.471564
v 0.135831 0.966527 -0.445973
v -0.083915 0.101687 0.368297
v 0.234070 0.084244 0.352776
v -0.017878 0.774918 0.577499
v -0.328112 0.801493 0.357849
v -0.543641 0.345177 0.416835
v -0.594981 0.528848 0.410520
v -0.365240 0.636165 -0.505823
v -0.478457 0.412951 -0.476184
v 0.547181 0.677146 -0.462053
v 0.550715 0.421821 -0.456491
v 0.410476 0.603302 0.477565
v 0.364284 0.386063 0.423464
v -0.144917 0.482727 0.629703
v -0.174583 0.271395 0.585548
v -0.487312 0.462371 0.582483
v -0.448905 0.260033 0.572984
v -0.138780 0.628004 -0.754358
v -0.253425 0.402779 -0.724365
v 0.012751 0.668425 -0.723978
v -0.020069 0.415563 -0.714739
v -0.427858 0.111751 -0.191873
v -0.307164 0.115885 0.059180
v -0.455055 0.896396 -0.061746
v -0.425106 0.865626 -0.173985
v 0.716777 0.054776 0.072265
v 0.724677 0.056853 -0.179120
v 0.547181 0.938449 -0.200750
v 0.545500 0.948191 0.068372
v 0.062066 0.971025 -0.169940
v -0.004673 0.889694 0.120478
v -0.185269 0.888961 -0.170712
v -0.246591 0.899445 -0.025909
v -0.070699 0.009600 -0.075827
v -0.073576 0.008183 0.187216
v 0.280462 0.028568 -0.047203
v 0.277585 0.027152 0.215840
v 0.860953 0.373882 -0.167963
v 0.858792 0.375268 0.097215
v 0.858845 0.626931 -0.174250
v 0.858093 0.633835 0.095130
v -0.744237 0.428880 -0.155363
v -0.733183 0.453292 -0.425371
v -0.770786 0.621620 -0.134683
v -0.740856 0.693450 -0.419683
vt 0.216981 0.076797
vt 0.498955 0.101748
vt 0.718922 0.248545
vt 0.173383 0.000000
vt 0.773434 0.151142
vt 0.103630 0.757349
vt 0.000000 0.736281
vt 0.095791 0.606166
vt 0.806742 0.407577
vt 0.137879 0.942971
vt 0.416531 0.342065
vt 0.379313 0.299750
vt 0.425822 0.461124
vt 0.479801 0.726979
vt 0.308218 0.378488
vt 0.585044 0.754418
vt 0.486225 0.644655
vt 0.572108 0.587489
vt 0.605595 1.000000
vt 0.488426 0.189654
vt 0.304973 0.105928
vt 0.511936 0.357453
vt 0.425061 0.499858
vt 0.265746 0.935522
vt 0.430641 0.816303
vt 0.985189 0.494792
vt 0.325577 0.609333
vt 0.787461 0.612846
vt 0.282295 0.304684
vt 0.369752 0.223161
vt 0.951594 0.091204
vt 0.479801 0.251361
vt 0.000000 0.171601
vt 0.867398 0.000000
vt 0.123166 0.100915
vt 0.002707 0.326483
vt 0.079364 0.024001
vt 0.422272 0.608357
vt 1.000000 0.559724
vt 1.000000 0.834437
vt 0.185275 0.770039
vt 0.600785 0.482088
vt 0.692330 0.990951
vt 0.326851 0.690547
vt 0.585581 0.370191
vt 0.502034 0.483022
vt 0.613145 0.877272
vt 0.914301 0.821781
vt 0.862931 0.285089
vt 0.862931 0.372225
vt 0.325577 0.531726
vt 0.623075 0.251152
vt 0.209461 0.593967
vt 0.286666 0.610104
vt 0.784077 0.252868
vt 0.791389 0.699823
vt 0.798432 0.517800
vt 0.663741 0.000000
vt 0.256834 0.225436
vt 0.119500 0.499338
vt 0.325577 0.797616
vt 0.306885 0.767915
vt 0.238129 0.335770
vt 0.272299 0.396103
vt 0.282493 0.780446
vt 0.798432 0.868980
vt 0.698171 0.907786
vt 0.664732 0.579504
vt 0.998051 0.745626
vt 0.862931 0.091204
vt 0.487830 0.287251
vt 0.572050 0.000877
vt 0.627596 0.139606
vt 0.927136 0.738768
vt 0.133502 0.530348
vt 0.674997 0.328582
vt 0.785702 0.301694
vt 0.933314 0.543163
vt 0.677945 0.758164
vt 0.161768 0.275803
vt 0.345605 0.178517
vt 0.328885 0.499338
vt 0.587797 0.490480
vt 0.798432 0.706516
vt 0.911234 0.483022
vt 0.814173 0.620434
vt 0.679655 0.483022
vt 0.479801 0.401075
vt 0.325577 0.840473
vt 0.047799 0.485323
vt 0.111876 0.399821
vt 0.160873 0.438503
vt 0.944124 0.024838
vt 0.344194 0.711321
vt 0.430641 0.690547
vt 0.050031 0.916949
vt 0.425061 0.687735
vt 0.333361 0.499338
vt 0.496623 0.773082
vt 0.788962 0.797028
vt 0.689313 0.832237
vt 0.603507 0.801317
vt 0.723444 0.136999
vt 0.261223 0.499338
vn -0.301896 0.757787 -0.578462
vn -0.301896 0.757787 -0.578462
vn -0.301896 0.757787 -0.578462
vn -0.301896 0.757787 -0.578462
vn 0.322902 0.503528 -0.801370
vn 0.322902 0.503528 -0.801370
vn 0.322902 0.503528 -0.801370
vn 0.322902 0.503528 -0.801370
vn 0.725186 0.389641 0.567702
vn 0.725186 0.389641 0.567702
vn 0.725186 0.389641 0.567702
vn 0.725186 0.389641 0.567702
vn -0.462945 0.582251 0.668331
vn -0.462945 0.582251 0.668331
vn -0.462945 0.582251 0.668331
vn -0.462945 0.582251 0.668331
vn 0.277011 -0.781352 0.559244
vn 0.277917 -0.780333 0.560217
vn 0.277917 -0.780333 0.560217
vn 0.277917 -0.780333 0.560217
vn -0.019812 0.973865 0.226260
vn -0.019812 0.973865 0.226260
vn -0.019812 0.973865 0.226260
vn -0.019812 0.973865 0.226260
vn -0.151083 0.974729 0.164551
vn -0.151083 0.974729 0.164551
vn -0.151083 0.974729 0.164551
vn -0.151083 0.974729 0.164551
vn -0.091796 0.967769 0.234515
vn -0.091796 0.967769 0.234515
vn -0.091796 0.967769 0.234515
vn -0.091796 0.967769 0.234515
vn -0.454930 -0.842026 0.289882
vn -0.454930 -0.842026 0.289882
vn -0.454930 -0.842026 0.289882
vn -0.454930 -0.842026 0.289882
vn -0.006302 -0.904181 0.427104
vn -0.004735 -0.904507 0.426432
vn -0.006302 -0.904181 0.427104
vn -0.006302 -0.904181 0.427104
vn 0.250120 0.061643 0.966251
vn 0.250120 0.061643 0.966251
vn 0.250120 0.061643 0.966251
vn 0.250120 0.061643 0.966251
vn -0.323868 0.499253 0.803652
vn -0.323868 0.499253 0.803652
vn -0.323868 0.499253 0.803652
vn -0.323868 0.499253 0.803652
vn -0.456366 0.620566 -0.637674
vn -0.456366 0.620566 -0.637674
vn -0.456366 0.620566 -0.637674
vn -0.456366 0.620566 -0.637674
vn -0.040927 0.690809 -0.721878
vn -0.040927 0.690809 -0.721878
vn -0.040927 0.690809 -0.721878
vn -0.040927 0.690809 -0.721878
vn 0.008888 -0.695709 -0.718269
vn 0.008888 -0.695709 -0.718269
vn 0.008888 -0.695709 -0.718269
vn 0.008888 -0.695709 -0.718269
vn 0.118727 -0.117526 -0.985947
vn 0.118727 -0.117526 -0.985947
vn 0.118727 -0.117526 -0.985947
vn 0.118727 -0.117526 -0.985947
vn -0.453426 -0.603530 -0.655863
vn -0.453426 -0.603530 -0.655863
vn -0.453426 -0.603530 -0.655863
vn -0.453426 -0.603530 -0.655863
vn -0.706973 0.272441 -0.652660
vn -0.706973 0.272441 -0.652660
vn -0.706973 0.272441 -0.652660
vn -0.706973 0.272441 -0.652660
vn -0.005034 -0.789067 0.614287
vn -0.005034 -0.789067 0.614287
vn -0.005034 -0.789067 0.614287
vn -0.005034 -0.789067 0.614287
vn -0.089045 -0.129962 0.987512
vn -0.089045 -0.129962 0.987512
vn -0.089045 -0.129962 0.987512
vn -0.089045 -0.129962 0.987512
vn 0.328677 -0.347482 0.878196
vn 0.328677 -0.347482 0.878196
vn 0.328677 -0.347482 0.878196
vn 0.328677 -0.347482 0.878196
vn 0.318335 -0.265017 0.910181
vn 0.318335 -0.265017 0.910181
vn 0.318335 -0.265017 0.910181
vn 0.318335 -0.265017 0.910181
vn -0.471691 -0.880235 -0.051911
vn -0.471691 -0.880235 -0.051911
vn -0.471691 -0.880235 -0.051911
vn -0.471691 -0.880235 -0.051911
vn -0.872511 -0.206509 0.442807
vn -0.872511 -0.206509 0.442807
vn -0.872511 -0.206509 0.442807
vn -0.872511 -0.206509 0.442807
vn 0.503436 -0.316599 0.803938
vn 0.503436 -0.316599 0.803938
vn 0.503436 -0.316599 0.803938
vn 0.503436 -0.316599 0.803938
vn 0.596841 -0.143371 0.789446
vn 0.596841 -0.143371 0.789446
vn 0.596841 -0.143371 0.789446
vn 0.596841 -0.143371 0.789446
vn 0.298029 -0.443989 -0.845016
vn 0.298029 -0.443989 -0.845016
vn 0.298029 -0.443989 -0.845016
vn 0.298029 -0.443989 -0.845016
vn 0.425858 -0.050851 -0.903360
vn 0.425858 -0.050851 -0.903360
vn 0.425858 -0.050851 -0.903360
vn 0.425858 -0.050851 -0.903360
vn -0.512848 -0.633270 -0.579617
vn -0.512848 -0.633270 -0.579617
vn -0.512848 -0.633270 -0.579617
vn -0.512848 -0.633270 -0.579617
vn -0.212620 -0.002079 -0.977133
vn -0.212620 -0.002079 -0.977133
vn -0.212620 -0.002079 -0.977133
vn -0.212620 -0.002079 -0.977133
vn -0.936938 -0.204689 0.283284
vn -0.936938 -0.204689 0.283284
vn -0.936938 -0.204689 0.283284
vn -0.936938 -0.204689 0.283284
vn -0.993587 -0.073307 -0.086082
vn -0.993587 -0.073307 -0.086082
vn -0.993587 -0.073307 -0.086082
vn -0.993587 -0.073307 -0.086082
vn -0.572583 -0.807914 0.139368
vn -0.572583 -0.807914 0.139368
vn -0.572583 -0.807914 0.139368
vn -0.572583 -0.807914 0.139368
vn -0.696044 -0.708086 0.118903
vn -0.696044 -0.708086 0.118903
vn -0.696044 -0.708086 0.118903
vn -0.696044 -0.708086 0.118903
vn 0.678879 -0.009578 -0.734188
vn 0.678879 -0.009578 -0.734188
vn 0.678879 -0.009578 -0.734188
vn 0.678879 -0.009578 -0.734188
vn 0.999970 0.005574 0.005362
vn 0.999970 0.005574 0.005362
vn 0.999970 0.005574 0.005362
vn 0.999970 0.005574 0.005362
vn 0.576843 -0.301895 -0.759020
vn 0.576843 -0.301895 -0.759020
vn 0.576843 -0.301895 -0.759020
vn 0.576843 -0.301895 -0.759020
vn 0.915990 -0.400829 0.017304
vn 0.915990 -0.400829 0.017304
vn 0.915990 -0.400829 0.017304
vn 0.915990 -0.400829 0.017304
vn 0.000100 -0.964677 -0.263437
vn 0.000100 -0.964677 -0.263437
vn -0.001276 -0.964414 -0.264394
vn 0.000100 -0.964677 -0.263437
vn 0.054326 -0.998512 -0.004782
vn 0.053068 -0.998585 -0.003533
vn 0.055315 -0.998463 -0.003311
vn 0.054326 -0.998512 -0.004782
vn -0.136883 -0.959905 -0.244635
vn -0.136883 -0.959905 -0.244635
vn -0.136883 -0.959905 -0.244635
vn -0.136883 -0.959905 -0.244635
vn -0.365770 -0.926467 0.088722
vn -0.365770 -0.926467 0.088722
vn -0.365770 -0.926467 0.088722
vn -0.365770 -0.926467 0.088722
vn -0.281436 0.957801 -0.058404
vn -0.281436 0.957801 -0.058404
vn -0.281436 0.957801 -0.058404
vn -0.281436 0.957801 -0.058404
vn -0.176858 0.978378 0.107227
vn -0.176858 0.978378 0.107227
vn -0.176858 0.978378 0.107227
vn -0.176858 0.978378 0.107227
vn 0.092802 0.994808 -0.041764
vn 0.092802 0.994808 -0.041764
vn 0.092802 0.994808 -0.041764
vn 0.092802 0.994808 -0.041764
vn -0.014818 0.992032 0.125112
vn -0.014818 0.992032 0.125112
vn -0.014818 0.992032 0.125112
vn -0.014818 0.992032 0.125112
vn -0.148737 0.988826 0.010024
vn -0.148737 0.988826 0.010024
vn -0.148737 0.988826 0.010024
vn -0.148737 0.988826 0.010024
vn -0.042806 0.983970 -0.173122
vn -0.042806 0.983970 -0.173122
vn -0.042806 0.983970 -0.173122
vn -0.042806 0.983970 -0.173122
vn 0.001333 -0.980341 -0.197306
vn 0.001333 -0.980341 -0.197306
vn 0.001333 -0.980341 -0.197306
vn 0.002082 -0.980021 -0.198885
vn 0.062919 -0.998009 -0.004490
vn 0.061456 -0.998095 -0.005490
vn 0.061456 -0.998095 -0.005490
vn 0.060203 -0.998177 -0.004239
vn 0.630169 0.549039 -0.549039
vn 0.630169 0.549039 -0.549039
vn 0.630169 0.549039 -0.549039
vn 0.630169 0.549039 -0.549039
vn 0.708689 0.705276 -0.018599
vn 0.708689 0.705276 -0.018599
vn 0.708689 0.705276 -0.018599
vn 0.708689 0.705276 -0.018599
vn -0.766194 0.597050 0.237651
vn -0.766194 0.597050 0.237651
vn -0.766194 0.597050 0.237651
vn -0.766194 0.597050 0.237651
vn -0.576867 0.816834 -0.002527
vn -0.576867 0.816834 -0.002527
vn -0.576867 0.816834 -0.002527
vn -0.576867 0.816834 -0.002527
s off
g Rock_2
usemtl Rock_2SG
f 56/13/1 36/15/2 4/12/3 19/11/4
f 31/16/5 12/14/6 8/17/7 21/18/8
f 52/94/9 40/95/10 6/25/11 23/89/12
f 27/90/13 16/91/14 2/92/15 18/60/16
f 48/61/17 37/24/18 5/65/19 14/62/20
f 44/63/21 35/64/22 2/92/23 16/91/24
f 40/35/25 42/80/26 15/36/27 6/33/28
f 42/80/29 44/63/30 16/91/31 15/36/32
f 34/76/33 46/3/34 13/55/35 1/77/36
f 46/3/37 48/103/38 14/5/39 13/55/40
f 23/6/41 6/7/42 15/8/43 25/53/44
f 25/53/45 15/8/46 16/75/47 27/104/48
f 19/11/49 4/12/50 11/30/51 29/32/52
f 29/102/53 11/99/54 12/14/55 31/16/56
f 10/100/57 30/101/58 32/79/59 9/56/60
f 30/101/61 29/102/62 31/16/63 32/79/64
f 3/66/65 20/67/66 30/101/67 10/100/68
f 20/67/69 19/47/70 29/102/71 30/101/72
f 14/5/73 26/49/74 28/50/75 13/55/76
f 26/54/77 25/53/78 27/104/79 28/51/80
f 5/65/81 24/41/82 26/54/83 14/62/84
f 24/41/85 23/6/86 25/53/87 26/54/88
f 13/55/89 28/50/90 17/9/91 1/77/92
f 28/85/93 27/26/94 18/39/95 17/78/96
f 37/24/97 50/10/98 24/41/99 5/65/100
f 50/10/101 52/96/102 23/6/103 24/41/104
f 9/56/105 32/79/106 22/68/107 7/28/108
f 32/79/109 31/16/110 21/18/111 22/68/112
f 33/45/113 54/46/114 20/88/115 3/22/116
f 54/43/117 56/19/118 19/47/119 20/67/120
f 17/78/121 18/39/122 55/69/123 53/74/124
f 53/74/125 55/69/126 56/40/127 54/48/128
f 1/77/129 17/9/130 53/42/131 34/76/132
f 34/86/133 53/74/134 54/48/135 33/84/136
f 22/68/137 21/18/138 51/83/139 49/87/140
f 49/38/141 51/97/142 52/44/143 50/27/144
f 7/28/145 22/68/146 49/87/147 38/57/148
f 38/23/149 49/38/150 50/27/151 37/98/152
f 10/71/153 9/20/154 47/73/155 45/52/156
f 45/52/157 47/73/158 48/103/159 46/3/160
f 3/22/161 10/71/162 45/52/163 33/45/164
f 33/45/165 45/52/166 46/3/167 34/76/168
f 12/81/169 11/30/170 43/29/171 41/59/172
f 41/59/173 43/29/174 44/63/175 42/80/176
f 8/21/177 12/81/178 41/59/179 39/1/180
f 39/1/181 41/59/182 42/80/183 40/35/184
f 11/30/185 4/12/186 36/15/187 43/29/188
f 43/29/189 36/15/190 35/64/191 44/63/192
f 9/20/193 7/2/194 38/72/195 47/73/196
f 47/73/197 38/72/198 37/58/199 48/103/200
f 21/34/201 8/93/202 39/31/203 51/70/204
f 51/4/205 39/1/206 40/35/207 52/37/208
f 18/60/209 2/92/210 35/64/211 55/82/212
f 55/82/213 35/64/214 36/15/215 56/13/216
